<?xml version="1.0" encoding="utf-8"?>
<!-- Generator: Adobe Illustrator 22.0.1, SVG Export Plug-In . SVG Version: 6.00 Build 0)  -->
<svg version="1.1" id="Layer_1" xmlns="http://www.w3.org/2000/svg" xmlns:xlink="http://www.w3.org/1999/xlink" x="0px" y="0px"
	 viewBox="0 0 612 792" style="enable-background:new 0 0 612 792;" xml:space="preserve">
<style type="text/css">
	.st0{fill:#57578C;}
</style>
<g>
	<path class="st0" d="M225.9,557.3c34.8-1.8,68.7-0.9,103-0.7c-10.5-4.7-11.6-12.8-10.8-22.6c2.2-25.2,3.5-50.5,5.6-75.7
		c0.7-8.8-5.1-14.2-9.1-20.4c-13-20.4-26.8-40.4-39.7-61c-10.3-16.4-14-33.9-8.3-53.4c7.1-24.3,13.3-48.9,25.7-71.2
		c1.7-3,3.6-6,5.8-8.7c9.7-12.6,24.1-14.7,37-5.2c11.2,8.2,17.2,20.1,22.8,32.3c6.2,13.5,10.1,27.9,13.1,42.4
		c0.9,4.2,2.8,5.7,7.1,5.7c14.3-0.1,28.7,0.2,43,0.4c6.6,0.1,12.2,2,15.1,8.5c3.1,7,1.8,13.8-3.8,19.2c-2.2,2.1-2.7,4.3-2.4,7.1
		c4.8,40.6,9.6,81.3,14.4,122c0.5,4,0.6,8,1.1,11.9c0.5,4,2.3,6,6.8,4.5c5.6-1.9,11.5-1.7,17.3-1.7c7.7,0.1,12.9,4.2,14.7,11.1
		c1.6,6.2-1.5,13.9-7.1,17.4c-0.8,0.5-1.9,0.7-2.3,1.9c0.4,1.5,1.8,2.1,3,3c15.7,10.8,21.3,31.3,13.5,49.3
		c-7.3,16.8-26.2,26.1-44.7,22c-10.4-2.3-18.6-7.9-24.7-16.3c-1.7-2.3-3.4-3.1-6.1-3.3c-5.7-0.5-11.2,1.1-16.8,1.1
		c-60.3,0-120.6-0.1-180.9,0c-5.5,0-10.8-1.4-16.3-1.2c-3.4,0.2-5.5,1.2-7.4,3.9c-9.2,13.1-22.3,18.2-37.8,16.5
		c-14.9-1.7-25.5-9.8-31.5-23.7c-9.2-21.5,2.5-46.6,25-53.4c5.7-1.7,5.7-2,3.5-7.8c-2.3-6.3-2.2-12.6,2.3-17.9
		c4.7-5.5,11.3-6.6,17.4-4.3c24.7,9.1,44.5,23.9,53.2,50.1C228.9,545.7,228.9,549.2,225.9,557.3z M341.6,327.9
		c-1.2,0.2-1.6,0.9-1.8,1.7c-4.4,12.4-8.8,24.7-13.3,37.1c-0.6,1.6-0.2,2.9,0.6,4.3c10.1,17,20.2,34,30.1,51.2
		c3.6,6.2,8.7,11.8,8.3,19.8c-0.3,6.7-2,13.1-3.1,19.7c-4.7,26.9-9.1,53.8-13.7,80.7c-0.5,3.2-1.4,6.3-3.6,8.6
		c-1.8,1.8-3.9,3.3-6.2,5c1.8,1.6,3.5,1.1,5.1,1.2c7.2,0.6,14.2-0.8,21.3-1.1c15.1-0.6,30.2,1.5,45.3,1.1c2.3,0,4.8,0.3,5.5-2.8
		c-1-2.2-3.1-2.4-5-2.9c-6.6-1.8-10.4-6.5-10.9-13.3c-0.4-5.1,1.1-9.5,4.3-13.5c7.4-9.4,16.2-17.1,26.3-23.5c3-1.8,5.4-3.9,4.8-7.9
		c-2.6-17.3-4.2-34.7-6.1-52c-3.1-28.1-6.6-56.1-9.8-84.2c-0.7-5.8-1.9-7.1-7.8-7.1c-16.5-0.2-33-0.2-49.5-0.4
		c-11-0.1-15.6-3.9-18.2-14.6C343.4,332.7,343.9,329.8,341.6,327.9z M140.9,557.1c0.1,11.1,10.3,21.1,21.2,20.9
		c11-0.2,21.1-10.5,20.8-21.4c-0.2-10.8-10.2-20.6-21.1-20.6C150.8,535.9,140.8,546,140.9,557.1z M455.6,577.9
		c10.7,0,21-10.1,21.1-20.7c0.1-11.1-10.3-21.5-21.4-21.3c-10.8,0.1-20.7,10.2-20.7,20.9C434.5,568,444.5,578,455.6,577.9z"/>
	<path class="st0" d="M394.6,189.6c0.1,24.3-18.3,43-42.3,43.1c-25,0-43.5-18.2-43.5-42.8c0-24.8,18.2-42.9,43.3-43
		C376.1,146.7,394.6,165.3,394.6,189.6z"/>
	<path class="st0" d="M258.5,451.5c-35.6-1.4-69-2.7-102.4-4.1c-9.4-0.4-15.6-6.6-15.4-15.5c0.2-8.6,6.4-14.1,15.8-14.4
		c30.4-1.2,60.8-2.4,91.3-3.6c4.8-0.2,6.5-3.1,7.2-7.3c1.5-9,3.1-18,4.6-27c0.2-1.4,0.1-3.2,2-3.6c1.9-0.5,2.6,1.2,3.4,2.4
		c8.4,12.5,16.7,25.1,25.2,37.6c2.5,3.6,2.6,6.9,0.6,10.7c-3.1,5.7-5.8,11.6-8.9,17.3c-2.7,4.9-6.9,7.6-12.5,7.7
		C265,451.6,260.6,451.5,258.5,451.5z"/>
</g>
</svg>
